<?xml version="1.0" encoding="UTF-8"?>
<!DOCTYPE svg PUBLIC "-//W3C//DTD SVG 1.1//EN" "http://www.w3.org/Graphics/SVG/1.1/DTD/svg11.dtd">
<svg version="1.2" width="210mm" height="210mm" viewBox="0 0 21000 21000" preserveAspectRatio="xMidYMid" fill-rule="evenodd" stroke-width="28.222" stroke-linejoin="round" xmlns="http://www.w3.org/2000/svg" xmlns:ooo="http://xml.openoffice.org/svg/export" xmlns:xlink="http://www.w3.org/1999/xlink" xmlns:presentation="http://sun.com/xmlns/staroffice/presentation" xmlns:smil="http://www.w3.org/2001/SMIL20/" xmlns:anim="urn:oasis:names:tc:opendocument:xmlns:animation:1.0" xmlns:svg="urn:oasis:names:tc:opendocument:xmlns:svg-compatible:1.0" xml:space="preserve">
 <defs class="ClipPathGroup">
  <clipPath id="presentation_clip_path" clipPathUnits="userSpaceOnUse">
   <rect x="0" y="0" width="21000" height="21000"/>
  </clipPath>
  <clipPath id="presentation_clip_path_shrink" clipPathUnits="userSpaceOnUse">
   <rect x="21" y="21" width="20958" height="20958"/>
  </clipPath>
 </defs>
 <defs class="TextShapeIndex">
  <g ooo:slide="id1" ooo:id-list="id3 id4 id5 id6"/>
 </defs>
 <defs class="EmbeddedBulletChars">
  <g id="bullet-char-template-57356" transform="scale(0.00048828125,-0.00048828125)">
   <path d="M 580,1141 L 1163,571 580,0 -4,571 580,1141 Z"/>
  </g>
  <g id="bullet-char-template-57354" transform="scale(0.00048828125,-0.00048828125)">
   <path d="M 8,1128 L 1137,1128 1137,0 8,0 8,1128 Z"/>
  </g>
  <g id="bullet-char-template-10146" transform="scale(0.00048828125,-0.00048828125)">
   <path d="M 174,0 L 602,739 174,1481 1456,739 174,0 Z M 1358,739 L 309,1346 659,739 1358,739 Z"/>
  </g>
  <g id="bullet-char-template-10132" transform="scale(0.00048828125,-0.00048828125)">
   <path d="M 2015,739 L 1276,0 717,0 1260,543 174,543 174,936 1260,936 717,1481 1274,1481 2015,739 Z"/>
  </g>
  <g id="bullet-char-template-10007" transform="scale(0.00048828125,-0.00048828125)">
   <path d="M 0,-2 C -7,14 -16,27 -25,37 L 356,567 C 262,823 215,952 215,954 215,979 228,992 255,992 264,992 276,990 289,987 310,991 331,999 354,1012 L 381,999 492,748 772,1049 836,1024 860,1049 C 881,1039 901,1025 922,1006 886,937 835,863 770,784 769,783 710,716 594,584 L 774,223 C 774,196 753,168 711,139 L 727,119 C 717,90 699,76 672,76 641,76 570,178 457,381 L 164,-76 C 142,-110 111,-127 72,-127 30,-127 9,-110 8,-76 1,-67 -2,-52 -2,-32 -2,-23 -1,-13 0,-2 Z"/>
  </g>
  <g id="bullet-char-template-10004" transform="scale(0.00048828125,-0.00048828125)">
   <path d="M 285,-33 C 182,-33 111,30 74,156 52,228 41,333 41,471 41,549 55,616 82,672 116,743 169,778 240,778 293,778 328,747 346,684 L 369,508 C 377,444 397,411 428,410 L 1163,1116 C 1174,1127 1196,1133 1229,1133 1271,1133 1292,1118 1292,1087 L 1292,965 C 1292,929 1282,901 1262,881 L 442,47 C 390,-6 338,-33 285,-33 Z"/>
  </g>
  <g id="bullet-char-template-9679" transform="scale(0.00048828125,-0.00048828125)">
   <path d="M 813,0 C 632,0 489,54 383,161 276,268 223,411 223,592 223,773 276,916 383,1023 489,1130 632,1184 813,1184 992,1184 1136,1130 1245,1023 1353,916 1407,772 1407,592 1407,412 1353,268 1245,161 1136,54 992,0 813,0 Z"/>
  </g>
  <g id="bullet-char-template-8226" transform="scale(0.00048828125,-0.00048828125)">
   <path d="M 346,457 C 273,457 209,483 155,535 101,586 74,649 74,723 74,796 101,859 155,911 209,963 273,989 346,989 419,989 480,963 531,910 582,859 608,796 608,723 608,648 583,586 532,535 482,483 420,457 346,457 Z"/>
  </g>
  <g id="bullet-char-template-8211" transform="scale(0.00048828125,-0.00048828125)">
   <path d="M -4,459 L 1135,459 1135,606 -4,606 -4,459 Z"/>
  </g>
  <g id="bullet-char-template-61548" transform="scale(0.00048828125,-0.00048828125)">
   <path d="M 173,740 C 173,903 231,1043 346,1159 462,1274 601,1332 765,1332 928,1332 1067,1274 1183,1159 1299,1043 1357,903 1357,740 1357,577 1299,437 1183,322 1067,206 928,148 765,148 601,148 462,206 346,322 231,437 173,577 173,740 Z"/>
  </g>
 </defs>
 <g>
  <g id="id2" class="Master_Slide">
   <g id="bg-id2" class="Background"/>
   <g id="bo-id2" class="BackgroundObjects"/>
  </g>
 </g>
 <g class="SlideGroup">
  <g>
   <g id="container-id1">
    <g id="id1" class="Slide" clip-path="url(#presentation_clip_path)">
     <g class="Page">
      <g class="Graphic">
       <g id="id3">
        <rect class="BoundingBox" stroke="none" fill="none" x="2500" y="2250" width="6800" height="6800"/>
        <path fill="rgb(51,51,51)" stroke="none" d="M 8669,4999 C 8606,3512 7389,2345 5900,2345 4410,2345 3193,3512 3130,4999 L 3116,5287 8680,5287 8669,4999 8669,4999 Z M 3714,4734 C 3897,3684 4807,2901 5900,2901 6992,2901 7902,3687 8085,4734 L 3714,4734 3714,4734 Z M 9021,6269 C 9021,5985 8862,5739 8630,5612 8664,5512 8683,5403 8683,5290 L 8127,5290 C 8127,5544 7918,5753 7664,5753 7410,5753 7201,5544 7201,5290 L 6365,5290 C 6365,5544 6156,5753 5902,5753 5648,5753 5439,5544 5439,5290 L 4601,5290 C 4601,5544 4392,5753 4138,5753 3881,5753 3675,5544 3675,5290 L 3119,5290 C 3119,5401 3138,5509 3172,5610 2937,5734 2778,5983 2778,6269 2778,6448 2841,6612 2947,6742 2841,6872 2778,7036 2778,7216 2778,7538 2984,7814 3272,7917 3365,8441 3796,8954 4355,8954 L 7444,8954 C 8003,8954 8437,8441 8527,7917 8815,7814 9021,7538 9021,7216 9021,7036 8958,6872 8852,6742 8958,6612 9021,6446 9021,6269 L 9021,6269 Z M 7444,8398 L 4355,8398 C 4146,8398 3960,8210 3868,7991 L 7931,7991 C 7839,8210 7651,8398 7444,8398 L 7444,8398 7444,8398 Z M 8275,7406 L 3521,7406 C 3415,7406 3331,7321 3331,7216 3331,7110 3415,7025 3521,7025 L 8275,7025 C 8381,7025 8466,7110 8466,7216 8466,7321 8381,7406 8275,7406 L 8275,7406 8275,7406 Z M 8275,6459 L 3521,6459 C 3415,6459 3331,6374 3331,6269 3331,6171 3402,6094 3495,6081 3669,6224 3892,6308 4135,6308 4511,6308 4841,6102 5019,5795 5193,6099 5524,6308 5902,6308 6278,6308 6609,6102 6786,5795 6960,6099 7291,6308 7669,6308 7913,6308 8132,6224 8310,6081 8402,6094 8474,6173 8474,6269 8466,6372 8381,6459 8275,6459 L 8275,6459 8275,6459 Z"/>
       </g>
      </g>
      <g class="Graphic">
       <g id="id4">
        <rect class="BoundingBox" stroke="none" fill="none" x="12000" y="2201" width="6800" height="6800"/>
        <path fill="rgb(0,0,0)" stroke="none" d="M 12833,8169 C 12889,8487 13167,8728 13500,8728 13876,8728 14180,8423 14180,8048 14180,7907 14143,7783 14069,7675 L 14119,7616 14209,7508 C 14370,7577 14548,7616 14733,7616 15209,7616 15648,7357 15884,6955 16011,6976 16138,6989 16265,6989 17511,6989 18524,5976 18524,4730 18524,3484 17508,2473 16262,2473 15016,2473 14003,3487 14003,4733 14003,4870 14016,5011 14042,5148 13646,5386 13399,5812 13399,6288 13399,6463 13434,6627 13495,6780 L 13336,6942 C 13228,6868 13098,6825 12955,6825 12579,6825 12275,7130 12275,7505 12278,7836 12516,8111 12833,8169 L 12833,8169 Z M 14431,5524 L 14646,5439 14582,5217 C 14537,5056 14513,4894 14513,4733 14513,3770 15299,2984 16262,2984 17225,2984 18011,3770 18011,4733 18011,5696 17225,6481 16262,6481 16114,6481 15960,6460 15807,6418 L 15582,6357 15500,6574 C 15381,6894 15071,7108 14733,7108 14280,7108 13910,6741 13910,6288 13910,5947 14114,5648 14431,5524 L 14431,5524 Z"/>
        <path fill="rgb(0,0,0)" stroke="none" d="M 16368,5153 C 16508,5153 16624,5040 16624,4899 16624,4759 16511,4645 16368,4645 16228,4645 16114,4759 16114,4899 16114,5040 16228,5153 16368,5153 L 16368,5153 Z M 16209,5910 C 16349,5910 16466,5796 16466,5656 16466,5516 16352,5402 16209,5402 16066,5402 15955,5516 15955,5656 15952,5796 16069,5910 16209,5910 L 16209,5910 Z M 17056,5569 C 17196,5569 17310,5455 17310,5315 17310,5175 17196,5061 17056,5061 16915,5061 16802,5175 16802,5315 16799,5455 16913,5569 17056,5569 L 17056,5569 Z"/>
       </g>
      </g>
      <g class="Graphic">
       <g id="id5">
        <rect class="BoundingBox" stroke="none" fill="none" x="2451" y="12000" width="6800" height="6800"/>
        <path fill="rgb(0,0,0)" stroke="none" d="M 8414,14373 C 8200,14101 7895,13929 7560,13881 7356,13249 6655,13148 6655,13148 5462,13169 5676,12288 5676,12288 4742,12212 3565,12616 3835,13963 3623,14048 3435,14188 3287,14373 3033,14696 2943,15111 3038,15511 L 3782,17937 C 3869,18283 4176,18521 4533,18521 L 7171,18521 C 7528,18521 7835,18280 7922,17937 L 8660,15526 8665,15511 C 8758,15111 8668,14696 8414,14373 L 8414,14373 Z M 4882,13114 C 5131,13114 5332,13315 5332,13564 5332,13812 5131,14013 4882,14013 4634,14013 4432,13812 4432,13564 4432,13315 4634,13114 4882,13114 L 4882,13114 Z M 4895,17976 L 4533,17976 C 4427,17976 4335,17902 4311,17799 L 3792,16114 4895,16114 4895,17976 4895,17976 Z M 6282,17976 L 5440,17976 5440,16114 6282,16114 6282,17976 6282,17976 Z M 7398,17783 L 7393,17799 C 7366,17902 7276,17976 7171,17976 L 6827,17976 6827,16114 7909,16114 7398,17783 7398,17783 Z M 8136,15376 L 8075,15569 3626,15569 3565,15376 C 3509,15140 3565,14899 3713,14709 3806,14593 3925,14508 4057,14458 4813,15349 7192,15143 7562,14434 7726,14476 7874,14569 7983,14709 8136,14899 8189,15140 8136,15376 L 8136,15376 8136,15376 Z"/>
       </g>
      </g>
      <g class="Graphic">
       <g id="id6">
        <rect class="BoundingBox" stroke="none" fill="none" x="12201" y="12000" width="6800" height="6800"/>
        <path fill="rgb(0,0,0)" stroke="none" d="M 18675,16931 L 17558,15532 C 17431,15370 17169,15460 17169,15667 17169,16135 17016,16569 16759,16921 16288,16780 15791,16476 15376,15868 16108,15804 16677,15550 17063,15111 17540,14569 17614,13894 17614,13540 L 17971,13540 C 18090,13540 18188,13442 18188,13323 18188,13204 18090,13106 17971,13106 L 17614,13106 17614,12788 C 17614,12669 17516,12571 17397,12571 17278,12571 17180,12669 17180,12788 L 17180,13103 15085,13103 C 13680,13103 12505,14214 12479,15619 12452,17053 13614,18230 15042,18230 15786,18230 16458,17913 16926,17405 17013,17421 17098,17431 17180,17439 17952,17513 18558,17278 18585,17267 18720,17217 18765,17045 18675,16931 L 18675,16931 Z M 13831,13918 L 14635,15447 12926,15447 C 12992,14815 13333,14265 13831,13918 L 13831,13918 13831,13918 Z M 12926,15884 L 14606,15884 13426,17045 C 13151,16725 12971,16325 12926,15884 L 12926,15884 Z M 14831,17783 C 14423,17743 14048,17585 13741,17347 L 14831,16275 14831,17783 14831,17783 14831,17783 Z M 14212,13706 C 14468,13598 14749,13537 15042,13537 L 17180,13537 C 17177,13828 17119,14392 16735,14823 16389,15214 15849,15423 15127,15444 L 14212,13706 14212,13706 Z M 15265,17783 L 15265,16439 C 15638,16868 16048,17124 16439,17270 16119,17550 15712,17735 15265,17783 L 15265,17783 Z M 17227,17011 C 17376,16770 17487,16500 17550,16217 L 18135,16950 C 17913,17000 17593,17045 17227,17011 L 17227,17011 Z"/>
        <path fill="rgb(0,0,0)" stroke="none" d="M 15759,13960 C 15614,13960 15497,14077 15497,14222 15497,14368 15614,14484 15759,14484 15905,14484 16021,14368 16021,14222 16024,14077 15905,13960 15759,13960 L 15759,13960 Z"/>
       </g>
      </g>
     </g>
    </g>
   </g>
  </g>
 </g>
</svg>